<svg xmlns="http://www.w3.org/2000/svg" width="34" height="35" viewBox="0 0 34 35">
    <g fill="none" fill-rule="evenodd" transform="translate(0 1)">
        <circle cx="17.125" cy="16.609" r="16.242" stroke="#999" opacity=".5"/>
        <path fill="#999" fill-rule="nonzero" d="M23.458 11.058c-2.743 1.955-5.549 4.063-8.298 6.093l-3.68-1.525a.359.359 0 0 0-.404.107.37.37 0 0 0-.019.422c1.295 1.89 2.564 3.808 3.867 5.703.123.18.423.191.56.022 3.159-3.861 5.654-6.929 8.436-10.325a.368.368 0 0 0 .048-.379c-.142-.21-.317-.21-.51-.118z"/>
    </g>
</svg>
