<svg xmlns="http://www.w3.org/2000/svg" width="47" height="47" viewBox="0 0 47 47">
    <g fill="none" fill-rule="evenodd" stroke="#0080CC" transform="translate(1 1)">
        <circle cx="22.5" cy="22.5" r="22.5"/>
        <path fill-rule="nonzero" stroke-width=".831" d="M15.443 28.79c.744-.765 1.196-1.775 1.196-2.882 0-2.004-1.484-3.69-3.498-4.184.06-1.189.377-2.226.953-3.11a5.434 5.434 0 0 1 2.017-1.874 5.792 5.792 0 0 1 2.727-.706c.535 0 1.236.152 2.108.45.87.3 1.428.452 1.673.452.183 0 .803-.178 1.855-.532.994-.329 1.833-.465 2.521-.411 1.863.138 3.263.812 4.193 2.027-1.666.927-2.49 2.226-2.474 3.891.015 1.298.528 2.377 1.535 3.234.457.398.967.706 1.534.924a10.83 10.83 0 0 1-1.581 2.908c-.626.82-1.139 1.387-1.534 1.702-.612.517-1.268.782-1.971.797-.504 0-1.113-.132-1.82-.399-.71-.266-1.364-.398-1.96-.398-.627 0-1.298.132-2.016.398-.72.267-1.299.407-1.742.42-.673.027-1.345-.246-2.015-.818-.428-.343-.963-.93-1.604-1.762a10.366 10.366 0 0 1-.097-.127zM27.12 11.573c0 1.017-.404 1.966-1.21 2.845-.974 1.045-2.15 1.649-3.427 1.553a2.91 2.91 0 0 1-.026-.385c0-.976.463-2.02 1.285-2.875.41-.433.932-.792 1.565-1.079.631-.283 1.228-.439 1.79-.466.017.136.023.272.023.407z"/>
    </g>
</svg>
