<?xml version="1.0" encoding="UTF-8"?>
<svg width="8px" height="18px" viewBox="0 0 8 18" version="1.1" xmlns="http://www.w3.org/2000/svg" xmlns:xlink="http://www.w3.org/1999/xlink">
    <!-- Generator: Sketch 52.1 (67048) - http://www.bohemiancoding.com/sketch -->
    <title>noun_Paper Clip_947352 Copy</title>
    <desc>Created with Sketch.</desc>
    <g id="О-компании" stroke="none" stroke-width="1" fill="none" fill-rule="evenodd">
        <g id="Отклик-на-вакансию" transform="translate(-859.000000, -382.000000)" fill="#0080CC" fill-rule="nonzero">
            <g id="noun_Paper-Clip_947352-Copy" transform="translate(859.000000, 382.000000)">
                <g id="Group">
                    <path d="M4.00015392,18.0000643 C6.20929675,18.0000643 8.00026768,16.2730566 8.00026768,14.1428117 L8.00026768,2.95676966 C8.00026768,1.46760017 6.74451197,0.256692869 5.20018805,0.256692869 C3.65586413,0.256692869 2.40010841,1.46760017 2.40010841,2.95676966 L2.40010841,14.1428117 C2.40010841,14.9909058 3.12064891,15.6857128 4.00015392,15.6857128 C4.87967893,15.6857128 5.60019943,14.9909058 5.60019943,14.1428117 L5.60019943,3.34249492 C5.60223908,3.20338886 5.52644658,3.0739996 5.40184423,3.0038726 C5.27724187,2.93374561 5.12313422,2.93374561 4.99853187,3.0038726 C4.87392952,3.0739996 4.79813701,3.20338886 4.80017667,3.34249492 L4.80017667,14.1428117 C4.80017667,14.5768684 4.45030672,14.9142622 4.00015392,14.9142622 C3.55002112,14.9142622 3.20013117,14.5768684 3.20013117,14.1428117 L3.20013117,2.95676966 C3.20013117,1.88163766 4.08523634,1.02814338 5.20018805,1.02814338 C6.31513976,1.02814338 7.20024493,1.88163766 7.20024493,2.95676966 L7.20024493,14.1428117 C7.20024493,15.8590191 5.77992454,17.2286138 4.00015392,17.2286138 C2.2203833,17.2286138 0.800062907,15.8590191 0.800062907,14.1428117 L0.800062907,3.34249492 C0.802102566,3.20338886 0.726310062,3.0739996 0.601707708,3.0038726 C0.477105355,2.93374561 0.322997706,2.93374561 0.198395352,3.0038726 C0.0737929989,3.0739996 -0.00199950515,3.20338886 4.01537949e-05,3.34249492 L4.01537949e-05,14.1428117 C4.01537949e-05,16.2730566 1.79101109,18.0000643 4.00015392,18.0000643 Z" id="Shape"></path>
                </g>
            </g>
        </g>
    </g>
</svg>