<svg xmlns="http://www.w3.org/2000/svg" width="21" height="21" viewBox="0 0 21 21">
    <g fill="none" fill-rule="evenodd">
        <path fill="#FFF" d="M-2-426h1716V950H-2z"/>
        <g>
            <rect width="20" height="20" x=".5" y=".5" stroke="#0080CC" rx="2"/>
            <path fill="#0080CC" fill-rule="nonzero" d="M16.434 5.222c-2.738 1.926-5.538 4.002-8.283 6.001L4.48 9.722a.36.36 0 0 0-.403.104.36.36 0 0 0-.02.416c1.293 1.863 2.56 3.752 3.86 5.618.123.177.422.188.559.022 3.152-3.804 5.643-6.825 8.419-10.17a.36.36 0 0 0 .048-.374c-.141-.206-.317-.206-.508-.116z"/>
        </g>
    </g>
</svg>
