<?xml version="1.0" encoding="UTF-8"?>
<svg width="22px" height="16px" viewBox="0 0 22 16" version="1.1" xmlns="http://www.w3.org/2000/svg" xmlns:xlink="http://www.w3.org/1999/xlink">
    <!-- Generator: Sketch 52.1 (67048) - http://www.bohemiancoding.com/sketch -->
    <title>noun_Mail_1707176 Copy</title>
    <desc>Created with Sketch.</desc>
    <g id="Symbols" stroke="none" stroke-width="1" fill="none" fill-rule="evenodd">
        <g id="footer-1366" transform="translate(-1093.000000, -175.000000)" fill="#C5C5C5" fill-rule="nonzero">
            <g id="noun_Mail_1707176-Copy" transform="translate(1093.000000, 175.000000)">
                <g id="Group">
                    <path d="M2.35714286,0.0949980328 C1.04866667,0.0949980328 1.30952381e-07,1.20096525 1.30952381e-07,2.51304393 L1.30952381e-07,13.4064787 C1.30952381e-07,14.7185574 1.04866667,15.8327082 2.35714286,15.8327082 L19.6428571,15.8327082 C20.9513331,15.8327082 22,14.7185574 22,13.4064787 L22,2.51304393 C22,1.20096525 20.9513331,0.0949980328 19.6428571,0.0949980328 L2.35714286,0.0949980328 Z M2.47172619,1.66876852 L19.5364714,1.66876852 L11.4665048,9.34090492 C11.172831,9.62017049 10.8443238,9.62045902 10.5498381,9.34090492 L2.47172619,1.66876852 Z M1.57142857,2.98024393 L6.92410714,8.06221639 L1.57142857,13.4064787 L1.57142857,2.98024393 Z M20.4285714,2.98024393 L20.4285714,13.4064787 L15.0922619,8.05403279 L20.4285714,2.98024393 Z M13.9627976,9.136 L19.0617426,14.2589377 L2.94642857,14.2589377 L8.06174286,9.14418361 L9.46948095,10.4802623 C10.322819,11.290282 11.6937074,11.2915672 12.5468619,10.4802623 L13.9627976,9.136 Z" id="Shape"></path>
                </g>
            </g>
        </g>
    </g>
</svg>