<svg xmlns="http://www.w3.org/2000/svg" width="55" height="44" viewBox="0 0 55 44">
    <path fill="#0080CC" fill-rule="nonzero" d="M5.975 23.914c-.722-1.014-1.33-2.143-1.85-3.335-.461-1.08-.83-2.203-1.032-3.4a11.985 11.985 0 0 1-.044-3.573c.154-1.104.479-2.156 1.008-3.074a7.003 7.003 0 0 1 2.176-2.29C7.82 7.169 9.65 6.813 9.65 6.813s-1.715.095-3.405.491c-.833.195-1.656.49-2.419.948a6.515 6.515 0 0 0-1.44 1.172c-.42.455-.753 1.012-1.026 1.61-1.515 3.285-.876 7.374.72 10.644.334.683.71 1.33 1.173 1.884.417.49.885.932 1.369 1.325.403.33.82.638 1.258.892 1.327.772 2.773 1.134 2.773 1.134s-1.477-1.322-2.68-2.998zm40.031-2.76l-2.97-.665.497-5.361-3 1.378.085-4.044-3.438 1.372-1.277-4.005-2.341 2.232-1.69-2.404-1.785 1.568-2.138-2.958-1.35 2.952-2.9-2.606-.864 3.518-3.728-1.858.057 3.795-3.252-.39.38 3.076-2.982-.075.842 3.633-3.113.787 1.323 2.945-3.472.917 1.879 2.498L7.45 28.78l2.998 2.907L7.8 35.05l3.25 1.714-1.168 3.313 2.893 1.173v2.059h23.35v-1.314l18.37-.03c-6.893-5.4-13.373-9.507-8.488-20.81zM34.49 40.37v1.31h-3.336V40.22H29.29v1.46h-3.42v-1.805h-3.022v1.806H19.59V40.22h-2.074v1.46h-3.111V40.16l-2.472-1.004 1.117-3.17-2.767-1.463 2.351-2.975-2.25-2.185 2.962-1.18-1.7-2.268 2.983-.786-1.308-2.928 2.777-.704-.727-3.14 2.767.07-.352-2.89 3.035.368-.042-2.978 3.155 1.568.7-2.851 2.527 2.271 1.108-2.425 1.545 2.144 1.77-1.552 1.734 2.463 1.822-1.735 1.016 3.184 2.778-1.11-.087 4.191 2.799-1.288-.371 3.978 2.518.559c-1.353 3.825-1.727 7.802.25 11.589 1.307 2.506 3.468 4.573 5.745 6.436l-15.3.023zM18.887.701c-.613 1.062-1.28 2.2-1.892 3.266l.966.045c1.02-1.17 1.285-2.424 1.143-3.721-3.445.177-5.324 1.909-6.07 4.77.427.527.851 1.051 1.278 1.573.29-3.166 1.942-5.101 4.575-5.934zm-2.633 7.23c1.09-.388 2.328-.897 3.755-1.12-1.122-.168-2.26-.45-3.474.077-1.176.515-2.327.836-3.532.93.82.412 2.059.537 3.251.114zM37.557 31.48a1.26 1.26 0 0 0-1.262 1.26 1.26 1.26 0 0 0 1.262 1.257c.7 0 1.265-.563 1.265-1.258a1.26 1.26 0 0 0-1.265-1.259zm2.734.759a.856.856 0 0 0-.86.853c0 .471.385.853.86.853a.854.854 0 0 0 .856-.853.854.854 0 0 0-.856-.853z"/>
</svg>
