<svg xmlns="http://www.w3.org/2000/svg" width="38" height="30" viewBox="0 0 38 30">
    <g fill="none" fill-rule="evenodd">
        <path d="M-4-4h46.714v38.316H-4z"/>
        <path fill="#A3A3A3" fill-rule="nonzero" d="M7.567 29.495v-1.909a1.133 1.133 0 0 0-1.196-1.21 1.177 1.177 0 0 0-1.07.542 1.117 1.117 0 0 0-1.005-.541 1.006 1.006 0 0 0-.891.452v-.376h-.662v3.042h.668v-1.673a.713.713 0 0 1 .745-.809c.439 0 .662.287.662.802v1.693h.668v-1.686a.716.716 0 0 1 .745-.809c.451 0 .668.287.668.802v1.693l.668-.013zm9.887-3.042h-1.088v-.923h-.668v.923h-.605v.605h.617v1.4c0 .706.274 1.126 1.057 1.126.292.001.579-.08.827-.235l-.19-.566a1.222 1.222 0 0 1-.586.171c-.319 0-.44-.203-.44-.509v-1.387h1.082l-.006-.605zm5.645-.076a.897.897 0 0 0-.802.445v-.369h-.655v3.042h.662V27.79c0-.503.216-.783.636-.783.142-.002.282.024.414.076l.203-.636a1.416 1.416 0 0 0-.47-.083l.012.013zm-8.534.318a2.275 2.275 0 0 0-1.241-.318c-.77 0-1.273.369-1.273.974 0 .496.369.801 1.05.897l.318.044c.363.051.535.147.535.319 0 .235-.242.369-.694.369a1.62 1.62 0 0 1-1.012-.318l-.318.515c.385.27.847.408 1.317.395.879 0 1.388-.414 1.388-.993 0-.58-.401-.815-1.063-.91l-.318-.045c-.287-.038-.516-.095-.516-.299s.217-.356.58-.356c.335.004.663.093.954.26l.293-.534zm17.727-.318a.897.897 0 0 0-.801.445v-.369h-.656v3.042h.662V27.79c0-.503.216-.783.636-.783.142-.002.282.024.414.076l.204-.636a1.416 1.416 0 0 0-.471-.083l.012.013zm-8.528 1.59a1.537 1.537 0 0 0 1.623 1.592c.398.02.788-.11 1.095-.363l-.318-.534c-.23.174-.508.27-.796.273a.977.977 0 0 1 0-1.947c.288.003.567.099.796.273l.318-.534a1.591 1.591 0 0 0-1.095-.363 1.537 1.537 0 0 0-1.623 1.591v.013zm6.2 0v-1.514H29.3v.37a1.155 1.155 0 0 0-.954-.446 1.591 1.591 0 0 0 0 3.182c.37.014.726-.152.954-.446v.37h.662v-1.515zm-2.464 0a.92.92 0 1 1 .923.975.913.913 0 0 1-.923-.974zm-7.987-1.59a1.591 1.591 0 0 0 .044 3.182c.458.023.909-.124 1.264-.414l-.318-.49a1.448 1.448 0 0 1-.885.318.843.843 0 0 1-.91-.744h2.26v-.255c0-.954-.593-1.59-1.446-1.59l-.01-.007zm0 .592a.754.754 0 0 1 .77.738h-1.591a.783.783 0 0 1 .808-.738h.013zm16.582 1.005v-2.743h-.636v1.591a1.155 1.155 0 0 0-.955-.445 1.591 1.591 0 0 0 0 3.182c.371.014.727-.152.955-.446v.37h.636v-1.509zm1.104 1.079a.318.318 0 0 1 .22.086.296.296 0 0 1-.099.49.3.3 0 0 1-.12.025.318.318 0 0 1-.287-.184.3.3 0 0 1 .067-.331.318.318 0 0 1 .229-.086h-.01zm0 .538a.226.226 0 0 0 .166-.07.235.235 0 0 0 0-.318.235.235 0 0 0-.166-.07.239.239 0 0 0-.168.07.235.235 0 0 0 0 .318c.022.022.047.039.076.05.032.015.067.021.102.02h-.01zm.02-.379a.127.127 0 0 1 .082.026.08.08 0 0 1 .029.066.076.076 0 0 1-.022.058.111.111 0 0 1-.067.028l.092.105h-.073l-.086-.105h-.029v.105h-.06v-.28l.133-.003zm-.07.054v.077h.07a.067.067 0 0 0 .038 0 .032.032 0 0 0 0-.03.032.032 0 0 0 0-.028.067.067 0 0 0-.039 0l-.07-.019zm-3.501-1.292a.92.92 0 1 1 .923.974.913.913 0 0 1-.923-.974zm-22.348 0v-1.52h-.662v.368a1.155 1.155 0 0 0-.955-.445 1.591 1.591 0 0 0 0 3.182c.372.014.727-.152.955-.446v.37h.662v-1.509zm-2.463 0a.92.92 0 1 1 .923.974.913.913 0 0 1-.93-.974h.007z"/>
        <g fill-rule="nonzero">
            <path fill="#D1D1D1" d="M14.345 3.271H24.37v18.014H14.345z"/>
            <path fill="#C2C2C2" d="M14.982 12.28a11.437 11.437 0 0 1 4.375-9.009 11.456 11.456 0 1 0 0 18.014 11.437 11.437 0 0 1-4.375-9.005z"/>
            <path fill="#DEDEDE" d="M37.893 12.28a11.456 11.456 0 0 1-18.536 9.005 11.456 11.456 0 0 0 0-18.014 11.456 11.456 0 0 1 18.536 9.006v.003z"/>
            <path fill="#F79E1B" d="M36.798 19.376v-.369h.15v-.076h-.379v.076h.163v.37h.066zm.735 0v-.445h-.114l-.134.318-.133-.318h-.102v.445h.082v-.334l.125.29h.086l.124-.29v.337l.066-.003z"/>
        </g>
    </g>
</svg>
