<svg xmlns="http://www.w3.org/2000/svg" width="73" height="73" viewBox="0 0 73 73">
    <g fill="#0080CC" fill-rule="nonzero">
        <path d="M43.029 22.905a1.614 1.614 0 0 0-1.174-.393h-6.402l6.02-7.223.565-.671.29-.393c.1-.152.182-.317.243-.492.07-.187.105-.387.107-.59a1.256 1.256 0 0 0-.564-1.178c-.5-.247-1.05-.36-1.6-.328h-7.485c-.399-.03-.794.1-1.112.36-.263.24-.409.596-.397.967 0 .557.173.895.519 1.015.495.151 1.01.218 1.524.197h4.878c-.204.305-.468.666-.793 1.08l-1.25 1.507-1.692 1.966-1.966 2.341a89.378 89.378 0 0 0-1.341 1.638c-.484.632-.424 1.56.137 2.113.402.325.9.482 1.402.442h8.902c.425.036.849-.098 1.189-.377.258-.243.404-.597.396-.966a1.359 1.359 0 0 0-.396-1.015z" opacity=".5"/>
        <path d="M56.584 31.038a1.277 1.277 0 0 0-.94-.308h-5.096l4.777-5.701.455-.535.288-.372c.081-.12.148-.25.197-.389a1.37 1.37 0 0 0 .091-.47.994.994 0 0 0-.44-.94 2.55 2.55 0 0 0-1.273-.258h-6.005a1.262 1.262 0 0 0-.88.291.985.985 0 0 0-.318.762c0 .431.136.701.41.81.394.116.803.165 1.212.145h3.882a9.537 9.537 0 0 1-.637.859l-1 1.198-1.304 1.62-1.517 1.847c-.546.647-.905 1.09-1.076 1.328a1.276 1.276 0 0 0 .106 1.62c.318.252.711.373 1.107.34h7.036c.336.028.67-.075.94-.292.2-.194.311-.472.303-.761a1.07 1.07 0 0 0-.318-.794z"/>
        <path d="M72.603 21.75a1.614 1.614 0 0 0-1.172-.393h-6.44l6.014-7.2.563-.67.366-.473c.1-.152.182-.317.243-.49.07-.187.105-.387.107-.588a1.252 1.252 0 0 0-.564-1.176 3.199 3.199 0 0 0-1.598-.326H62.57a1.568 1.568 0 0 0-1.111.359c-.263.24-.409.594-.396.963 0 .556.172.893.517 1.013.495.15 1.009.217 1.523.196h4.871c-.203.304-.466.664-.791 1.077l-1.264 1.535-1.644 1.96-1.964 2.334c-.68.817-1.126 1.361-1.34 1.633-.483.63-.423 1.555.137 2.107.402.324.9.48 1.401.44h8.875c.43.058.865-.058 1.218-.326.259-.242.404-.595.396-.964a1.354 1.354 0 0 0-.396-1.012z" opacity=".5"/>
        <path d="M67.342 49.255a1.456 1.456 0 0 0-1.677-.374c-16.517 7.301-35.45-1.078-42.289-18.716-3.472-8.957-3.262-19.059.578-27.842.36-.812.035-1.783-.726-2.167a1.436 1.436 0 0 0-1.24-.03C3.879 8.07-4.771 30.184 2.668 49.521c7.439 19.337 28.15 28.573 46.258 20.63 8.26-3.623 14.934-10.44 18.69-19.09a1.712 1.712 0 0 0-.274-1.806zM35.475 69.759C17.573 69.756 3.063 54.257 3.065 35.14c.003-12.552 6.369-24.12 16.637-30.23a39.62 39.62 0 0 0-1.829 11.961c.001 20.914 15.88 37.867 35.465 37.866 3.282 0 6.549-.487 9.706-1.446-5.91 10.204-16.333 16.43-27.569 16.468z"/>
    </g>
</svg>
