<svg xmlns="http://www.w3.org/2000/svg" width="23" height="22" viewBox="0 0 23 22">
    <g fill="#FC3F3F" fill-rule="evenodd">
        <path d="M18.46 6.487c.066-.02.153.021.24.136l3.944 3.842c.23.23.23.577 0 .747L18.7 15.114c-.088.115-.175.143-.241.108-.067-.035-.108-.136-.108-.281V6.737c0-.142.041-.229.108-.25zM11.714.084h.28l.268.111 4.059 4.016c.174.23.115.404-.175.404h-1.682c-.29 0-.52.229-.52.517v2.981c0 .289-.234.518-.583.518h-2.956a.519.519 0 0 1-.523-.518v-2.98a.516.516 0 0 0-.524-.518H7.561c-.29 0-.349-.174-.174-.404L11.449.195l.265-.111zM5.356 6.4c.073.035.118.136.118.282v8.373c0 .146-.045.233-.118.26-.07.029-.171 0-.29-.086l-4.003-4.017c-.23-.17-.23-.517 0-.747l4.003-3.957c.119-.115.22-.142.29-.108zM10.405 12.991h2.956c.35 0 .583.23.583.518v3.155c0 .344.23.573.52.573h1.567c.29 0 .405.17.174.344l-3.943 3.957a.585.585 0 0 1-.408.174.577.577 0 0 1-.405-.174l-3.944-3.957c-.233-.174-.118-.344.171-.344h1.682c.294 0 .524-.23.524-.573v-3.155c0-.288.234-.518.523-.518z"/>
    </g>
</svg>
