<svg xmlns="http://www.w3.org/2000/svg" xmlns:xlink="http://www.w3.org/1999/xlink" width="58" height="36" viewBox="0 0 58 36">
    <defs>
        <rect id="a" width="58" height="36" rx="5"/>
    </defs>
    <g fill="none" fill-rule="evenodd">
        <g>
            <mask id="b" fill="#fff">
                <use xlink:href="#a"/>
            </mask>
            <rect width="57" height="35" x=".5" y=".5" stroke="#0080CC" rx="5"/>
            <g fill="#0080CC" fill-rule="nonzero" mask="url(#b)">
                <path d="M-10.166 28.71a12.21 12.21 0 0 1-2.103-1.515 9.676 9.676 0 0 1-1.594-1.79 7.67 7.67 0 0 1-1.005-2.18c-.202-.722-.28-1.46-.19-2.175a4.812 4.812 0 0 1 .776-2.03c.73-1.115 1.813-1.858 1.813-1.858s-1.08.55-2.06 1.278a6.087 6.087 0 0 0-1.3 1.276 4.56 4.56 0 0 0-.608 1.132c-.147.4-.209.837-.222 1.282-.079 2.451 1.45 4.777 3.372 6.326.402.323.822.612 1.27.819.404.181.826.317 1.245.42.35.087.702.157 1.055.186 1.065.093 2.096-.1 2.096-.1s-1.313-.387-2.545-1.07zm25.043-13.18l-2.096.445-1.144-3.432-1.556 1.706-1.05-2.505-1.841 1.828-1.918-2.091-.899 2.041-1.745-.99-.722 1.474-2.186-1.201-.063 2.198-2.581-.767.404 2.407-2.91-.07 1.073 2.312-2.202.693 1.085 1.779-1.942.81 1.535 1.987-1.79 1.376 1.656 1.428L-8 28.516l1.892.994-1.776 1.764 2.726.923-.79 2.823 2.563.119.152 2.368 2.186-.11.562 1.263 15.047-6.7-.36-.805 11.83-5.29c-5.916-1.335-11.214-1.997-11.154-10.334zm-2.171 15.098l.358.803-2.15.957-.4-.896-1.2.534.4.897-2.205.981-.494-1.108-1.947.867.494 1.108-2.1.935-.399-.897-1.337.596.4.896-2.005.893-.416-.934-1.867.093-.147-2.266-2.182-.104.702-2.5-2.047-.695 1.586-1.574-1.715-.904 1.708-1.337L-5.9 25.55l1.598-1.229-1.327-1.718 1.802-.75-1.016-1.673 2.056-.646-.84-1.815 2.461.057-.327-1.95 2.249.669.05-1.806 1.582.872.716-1.46 1.791 1.014.7-1.588L7.12 15.19l1.487-1.48 1.089 2.598 1.452-1.594.847 2.548 1.776-.38c.173 2.736 1.018 5.283 3.327 7.04 1.527 1.162 3.485 1.81 5.46 2.3l-9.852 4.405zM-8.187 10.762c-.105.827-.223 1.717-.327 2.547l.635-.25c.337-1.01.166-1.856-.28-2.611-2.172 1.097-2.91 2.699-2.61 4.668.42.202.837.401 1.255.599-.679-2.026-.142-3.687 1.327-4.953zm.279 5.192c.596-.551 1.254-1.218 2.113-1.765-.769.219-1.579.373-2.217 1.044-.618.654-1.272 1.18-2.023 1.584.641.018 1.474-.261 2.127-.863zm20.161 8.337c-.45.2-.66.708-.47 1.135.19.426.709.61 1.158.41.45-.201.661-.709.471-1.135-.19-.427-.708-.61-1.159-.41zm1.97-.319c-.307.137-.45.481-.321.77.128.29.48.413.786.277.305-.135.448-.48.319-.769-.129-.289-.48-.413-.785-.278z"/>
            </g>
        </g>
        <text fill="#000" font-family="Montserrat-Regular, Montserrat" font-size="9" letter-spacing=".056">
            <tspan x="29.826" y="17">1000</tspan>
        </text>
    </g>
</svg>
