<?xml version="1.0" encoding="UTF-8"?>
<svg width="26px" height="17px" viewBox="0 0 26 17" version="1.1" xmlns="http://www.w3.org/2000/svg" xmlns:xlink="http://www.w3.org/1999/xlink">
    <!-- Generator: Sketch 52.1 (67048) - http://www.bohemiancoding.com/sketch -->
    <title>noun_View_777492 Copy 6</title>
    <desc>Created with Sketch.</desc>
    <g id="Формы" stroke="none" stroke-width="1" fill="none" fill-rule="evenodd">
        <g id="Аворизация/Регистрация" transform="translate(-791.000000, -4240.000000)">
            <g id="noun_View_777492-Copy-6" transform="translate(792.000000, 4241.000000)">
                <path d="M13.5817912,3.67162689 C11.3646635,3.67162689 9.56099623,5.54718865 9.56099623,7.85299111 C9.56099623,10.1587936 11.3646635,12.0343553 13.5817912,12.0343553 C15.798919,12.0343553 17.6025862,10.158494 17.6025862,7.85299111 C17.6025862,5.54748827 15.798919,3.67162689 13.5817912,3.67162689 Z M13.5817912,10.5363028 C12.1590262,10.5363028 11.001625,9.33246779 11.001625,7.85299111 C11.001625,6.37351443 12.1593143,5.16967942 13.5817912,5.16967942 C15.0042681,5.16967942 16.1619574,6.37351443 16.1619574,7.85299111 C16.1619574,9.33246779 15.0042681,10.5363028 13.5817912,10.5363028 Z M24.8665248,7.41855588 C22.0748743,3.33935883 17.9615909,1 13.5817912,1 C9.20199153,1 5.08870816,3.33965844 2.29705766,7.41855588 L2,7.85299111 L2.29705766,8.28742635 C3.61148738,10.2076301 5.28434555,11.803056 7.13555357,12.9014281 C7.24849887,12.9682413 7.37095231,13 7.49196513,13 C7.7420583,13 7.98523644,12.8642764 8.11835054,12.6218915 C8.31542856,12.2626585 8.19528012,11.8051533 7.8495292,11.6002197 C6.31900516,10.6923999 4.92044272,9.40317587 3.77888845,7.8526915 C6.28414194,4.44222511 9.83039381,2.49805253 13.5815031,2.49805253 C17.4893528,2.49805253 21.1747694,4.60820933 23.6924123,8.28742635 C23.9234892,8.62448817 24.3729654,8.70298612 24.6968187,8.46329771 C25.0212483,8.2233097 25.0973135,7.7556177 24.8665248,7.41855588 Z" id="Shape" fill="#999999" fill-rule="nonzero"></path>
                <path d="M24,0 L0,15" id="Line" stroke="#999999" stroke-width="1.6" stroke-linecap="round"></path>
            </g>
        </g>
    </g>
</svg>