<?xml version="1.0" encoding="UTF-8"?>
<svg width="23px" height="12px" viewBox="0 0 23 12" version="1.1" xmlns="http://www.w3.org/2000/svg" xmlns:xlink="http://www.w3.org/1999/xlink">
    <!-- Generator: Sketch 52.1 (67048) - http://www.bohemiancoding.com/sketch -->
    <title>noun_View_777492 Copy 4</title>
    <desc>Created with Sketch.</desc>
    <g id="Формы" stroke="none" stroke-width="1" fill="none" fill-rule="evenodd">
        <g id="Аворизация/Регистрация" transform="translate(-765.000000, -1271.000000)" fill="#999999" fill-rule="nonzero">
            <g id="noun_View_777492-Copy-4" transform="translate(765.000000, 1271.000000)">
                <path d="M11.5817912,2.67162689 C9.36466349,2.67162689 7.56099623,4.54718865 7.56099623,6.85299111 C7.56099623,9.15879357 9.36466349,11.0343553 11.5817912,11.0343553 C13.798919,11.0343553 15.6025862,9.15849396 15.6025862,6.85299111 C15.6025862,4.54748827 13.798919,2.67162689 11.5817912,2.67162689 Z M11.5817912,9.53630281 C10.1590262,9.53630281 9.00162503,8.33246779 9.00162503,6.85299111 C9.00162503,5.37351443 10.1593143,4.16967942 11.5817912,4.16967942 C13.0042681,4.16967942 14.1619574,5.37351443 14.1619574,6.85299111 C14.1619574,8.33246779 13.0042681,9.53630281 11.5817912,9.53630281 Z M22.8665248,6.41855588 C20.0748743,2.33935883 15.9615909,0 11.5817912,0 C7.20199153,0 3.08870816,2.33965844 0.29705766,6.41855588 L0,6.85299111 L0.29705766,7.28742635 C1.61148738,9.20763008 3.28434555,10.803056 5.13555357,11.9014281 C5.24849887,11.9682413 5.37095231,12 5.49196513,12 C5.7420583,12 5.98523644,11.8642764 6.11835054,11.6218915 C6.31542856,11.2626585 6.19528012,10.8051533 5.8495292,10.6002197 C4.31900516,9.69239988 2.92044272,8.40317587 1.77888845,6.8526915 C4.28414194,3.44222511 7.83039381,1.49805253 11.5815031,1.49805253 C15.4893528,1.49805253 19.1747694,3.60820933 21.6924123,7.28742635 C21.9234892,7.62448817 22.3729654,7.70298612 22.6968187,7.46329771 C23.0212483,7.2233097 23.0973135,6.7556177 22.8665248,6.41855588 Z" id="Shape"></path>
            </g>
        </g>
    </g>
</svg>