<?xml version="1.0" encoding="UTF-8"?>
<svg width="90px" height="90px" viewBox="0 0 90 90" version="1.1" xmlns="http://www.w3.org/2000/svg" xmlns:xlink="http://www.w3.org/1999/xlink">
    <!-- Generator: Sketch 52.5 (67469) - http://www.bohemiancoding.com/sketch -->
    <title>verified</title>
    <desc>Created with Sketch.</desc>
    <g id="Выдача" stroke="none" stroke-width="1" fill="none" fill-rule="evenodd">
        <g id="Предзаказ/-Нет-в-наличии" transform="translate(-1111.000000, -2342.000000)">
            <g id="verified" transform="translate(1111.000000, 2342.000000)">
                <g id="Group-5">
                    <path d="M76.8197461,13.1800781 C68.3203711,4.68087891 57.0199219,0 45,0 C32.9799023,0 21.6792773,4.68087891 13.1800781,13.1800781 C4.68070312,21.6794531 0,32.9800781 0,45 C0,57.0199219 4.68070312,68.3203711 13.1800781,76.8197461 C21.6794531,85.3191211 32.9799023,90 45,90 C57.0199219,90 68.3203711,85.3191211 76.8197461,76.8197461 C85.3191211,68.3203711 90,57.0199219 90,45 C90,32.9800781 85.3191211,21.6796289 76.8197461,13.1800781 Z M45,84.7265625 C23.094668,84.7265625 5.2734375,66.905332 5.2734375,45 C5.2734375,23.094668 23.094668,5.2734375 45,5.2734375 C66.905332,5.2734375 84.7265625,23.094668 84.7265625,45 C84.7265625,66.905332 66.905332,84.7265625 45,84.7265625 Z" id="Shape" fill="#0080CC" fill-rule="nonzero"></path>
                    <path d="M66.0288408,30.2985135 C65.0049701,29.2754664 63.3446108,29.2754664 62.3207401,30.2986882 L39.1653886,53.4393643 L26.9763097,41.2580107 C25.952439,40.2347888 24.2920797,40.2347888 23.2680342,41.2580107 C22.2439886,42.2812325 22.2439886,43.9405395 23.2680342,44.963936 L37.3111634,58.998165 C37.8231862,59.5098632 38.4942874,59.765625 39.1652138,59.765625 C39.8361402,59.765625 40.5074162,59.5096885 41.0192641,58.998165 L66.0288408,34.0044388 C67.0528864,32.981217 67.0528864,31.32191 66.0288408,30.2985135 Z" id="Path" fill="#7FBFE5"></path>
                </g>
            </g>
        </g>
    </g>
</svg>