<svg xmlns="http://www.w3.org/2000/svg" width="20" height="20" viewBox="0 0 20 20">
    <path fill="#0080CC" fill-rule="nonzero" d="M17.66 5.237a.687.687 0 0 0-.688-.586h-3.956v-1.62A3.034 3.034 0 0 0 9.988 0 3.034 3.034 0 0 0 6.96 3.032v1.62H3.004a.687.687 0 0 0-.689.585L.01 19.19a.678.678 0 0 0 .155.569.705.705 0 0 0 .533.241H19.295c.395 0 .705-.31.705-.706 0-.086-.017-.155-.034-.224L17.66 5.237zM8.37 3.032a1.616 1.616 0 1 1 3.235 0v1.62H8.371v-1.62zM1.525 18.605L3.606 6.064H6.96v3.945c0 .396.31.706.706.706.395 0 .705-.31.705-.706V6.064h3.234v3.945c0 .396.31.706.705.706.396 0 .706-.31.706-.706V6.064h3.354l2.082 12.54H1.524z"/>
</svg>
