<svg xmlns="http://www.w3.org/2000/svg" width="19" height="19" viewBox="0 0 19 19">
    <path fill="#333" fill-rule="nonzero" d="M9.5 0C4.262 0 0 4.262 0 9.5S4.262 19 9.5 19 19 14.738 19 9.5 14.738 0 9.5 0zm0 17.733c-.59 0-1.305-.91-1.841-2.533h3.682c-.536 1.624-1.25 2.533-1.841 2.533zm-2.186-3.8c-.239-1.072-.4-2.348-.438-3.8h5.249c-.038 1.452-.2 2.728-.438 3.8H7.314zm-6.015-3.8h4.31a21.97 21.97 0 0 0 .425 3.8h-3.46a8.168 8.168 0 0 1-1.275-3.8zM9.5 1.267c.59 0 1.305.91 1.841 2.533H7.66c.536-1.624 1.25-2.533 1.841-2.533zm2.186 3.8c.239 1.072.4 2.348.438 3.8H6.875c.038-1.452.2-2.728.438-3.8h4.373zm-6.077 3.8h-4.31a8.161 8.161 0 0 1 1.275-3.8h3.46a21.97 21.97 0 0 0-.425 3.8zm7.782 1.266h4.31a8.161 8.161 0 0 1-1.274 3.8h-3.46c.246-1.194.389-2.498.424-3.8zm0-1.266a21.97 21.97 0 0 0-.424-3.8h3.46a8.161 8.161 0 0 1 1.275 3.8h-4.31zM15.427 3.8h-2.772c-.251-.855-.567-1.61-.939-2.222A8.234 8.234 0 0 1 15.427 3.8zM7.284 1.578c-.373.612-.688 1.367-.939 2.222H3.573a8.234 8.234 0 0 1 3.711-2.222zM3.573 15.2h2.772c.251.855.567 1.61.939 2.222A8.234 8.234 0 0 1 3.573 15.2zm8.143 2.222c.373-.612.688-1.367.939-2.222h2.772a8.234 8.234 0 0 1-3.711 2.222z" opacity=".6"/>
</svg>
