<svg xmlns="http://www.w3.org/2000/svg" width="73" height="73" viewBox="0 0 73 73">
    <g fill="#0080CC" fill-rule="nonzero">
        <ellipse cx="1.434" cy="71.489" opacity=".5" rx="1.434" ry="1.44"/>
        <ellipse cx="38.069" cy="34.97" opacity=".5" rx="1.431" ry="1.437"/>
        <path d="M56.814 16.752a6.04 6.04 0 0 0-4.308-1.792 6.041 6.041 0 0 0-4.308 1.792c-2.375 2.385-2.375 6.265 0 8.65a6.061 6.061 0 0 0 4.308 1.788c1.56 0 3.12-.596 4.308-1.788 2.376-2.385 2.376-6.266 0-8.65zm-2.024 6.617a3.225 3.225 0 0 1-4.568 0 3.255 3.255 0 0 1 0-4.585 3.202 3.202 0 0 1 2.284-.95c.863 0 1.674.337 2.284.95a3.255 3.255 0 0 1 0 4.585zM17.88 58.75a1.429 1.429 0 0 0-1.919.647l-1.705 3.437a4.724 4.724 0 0 1-3.892 2.608l-1.983.136a.838.838 0 0 1-.657-.247.844.844 0 0 1-.247-.66l.136-1.991a4.744 4.744 0 0 1 2.598-3.907l3.424-1.712a1.44 1.44 0 0 0 .643-1.927c-.352-.71-1.212-1-1.92-.646L8.936 56.2a7.628 7.628 0 0 0-4.178 6.283l-.136 1.99a3.733 3.733 0 0 0 1.078 2.89 3.703 3.703 0 0 0 2.878 1.082l1.983-.136a7.596 7.596 0 0 0 6.259-4.194l1.705-3.437a1.44 1.44 0 0 0-.643-1.927z" opacity=".5"/>
        <path d="M72.012 1.028a3.307 3.307 0 0 0-2.537-.95l-1.333.085C56.192.929 45.007 6.72 37.457 16.052l-3.137 3.877-8.21-.242h-.042c-6.511 0-12.633 2.545-17.237 7.167L.42 35.296a1.441 1.441 0 0 0-.323 1.532c.203.53.698.89 1.263.92l17.8.918-.726.897a1.442 1.442 0 0 0-.146 1.592c.279.515.57 1.022.876 1.52l-4.222 5.03a1.442 1.442 0 0 0-.199 1.541 18.83 18.83 0 0 0 3.638 5.224 18.742 18.742 0 0 0 5.31 3.76 1.424 1.424 0 0 0 1.515-.183c.91-.74 1.958-1.619 2.972-2.468.723-.606 1.462-1.225 2.153-1.796.413.25.83.49 1.254.722a1.425 1.425 0 0 0 1.562-.127l.975-.76.919 17.945a1.437 1.437 0 0 0 1.429 1.364c.373 0 .739-.147 1.012-.421l8.41-8.442c4.604-4.623 7.14-10.768 7.14-17.305v-7.872l3.316-2.584c9.942-7.745 15.997-19.425 16.613-32.043l.034-.7a3.337 3.337 0 0 0-.984-2.532zM4.722 35.043l6.133-6.156c4.059-4.075 9.454-6.321 15.192-6.327l6 .177-10.651 13.166-16.673-.86zm21.623 18.33c-.748.625-1.514 1.267-2.224 1.854a15.81 15.81 0 0 1-3.706-2.781 15.871 15.871 0 0 1-2.672-3.616l3.09-3.683a33.28 33.28 0 0 0 3.063 3.568l.003.002v.001l.002.001a33.223 33.223 0 0 0 3.94 3.401l-1.496 1.252zm23.825-6.614c0 5.77-2.238 11.193-6.302 15.272l-6.132 6.157-.856-16.717 13.29-10.353v5.64zm19.933-42.64a40.364 40.364 0 0 1-15.508 29.913l-22.45 17.49a30.318 30.318 0 0 1-5.186-3.843l7.569-7.598a1.441 1.441 0 0 0 0-2.033 1.428 1.428 0 0 0-2.024 0l-7.562 7.592a30.42 30.42 0 0 1-3.67-5.025l18.407-22.751C46.727 9.152 57.17 3.746 68.324 3.03l1.333-.085a.45.45 0 0 1 .48.474l-.034.7z"/>
    </g>
</svg>
