<svg xmlns="http://www.w3.org/2000/svg" width="56" height="19" viewBox="0 0 56 19">
    <g fill="#C2C2C2" fill-rule="nonzero">
        <path d="M24.142 17.911H19.65L22.46.537h4.492zM40.428.962c-.886-.352-2.292-.74-4.03-.74-4.436 0-7.56 2.366-7.58 5.748-.036 2.495 2.238 3.881 3.938 4.713 1.738.85 2.329 1.406 2.329 2.163-.018 1.164-1.405 1.7-2.698 1.7-1.794 0-2.755-.276-4.215-.923l-.592-.278-.628 3.9c1.053.48 2.995.906 5.01.925 4.714 0 7.783-2.33 7.819-5.934.018-1.977-1.183-3.493-3.77-4.731-1.572-.795-2.534-1.331-2.534-2.145.018-.74.813-1.496 2.587-1.496 1.46-.038 2.534.313 3.347.665l.406.184.61-3.751zM46.399 11.756c.37-.998 1.793-4.861 1.793-4.861-.018.037.37-1.017.591-1.664l.314 1.497s.851 4.16 1.036 5.028h-3.734zM51.944.536h-3.475c-1.071 0-1.886.315-2.348 1.442l-6.673 15.933h4.714l.943-2.606h5.768c.129.61.536 2.606.536 2.606h4.16L51.943.537zM15.898.537l-4.4 11.847-.48-2.402c-.814-2.773-3.365-5.785-6.212-7.283l4.03 15.194h4.75L20.649.537h-4.75z"/>
        <path d="M7.413.537H.185L.11.887C5.749 2.33 9.483 5.806 11.017 9.983l-1.57-7.985C9.186.887 8.391.573 7.412.537z"/>
    </g>
</svg>
