<?xml version="1.0" encoding="UTF-8"?>
<svg width="94px" height="17px" viewBox="0 0 94 17" version="1.1" xmlns="http://www.w3.org/2000/svg" xmlns:xlink="http://www.w3.org/1999/xlink">
    <!-- Generator: Sketch 49.3 (51167) - http://www.bohemiancoding.com/sketch -->
    <title>logo Turumburum</title>
    <desc>Created with Sketch.</desc>
    <defs></defs>
    <g id="Symbols" stroke="none" stroke-width="1" fill="none" fill-rule="evenodd">
        <g id="footer" transform="translate(-1033.000000, -388.000000)" fill="#FFFFFF">
            <g id="Group-4" transform="translate(1019.000000, 357.000000)">
                <g id="logo-Turumburum" transform="translate(14.000000, 31.000000)">
                    <path d="M56.4494388,0.567615373 L56.913292,0.528885575 C57.5759394,0.528885575 58.1855751,0.0899478568 58.4042487,1.00009812 C58.5920289,1.86121283 58.1362659,2.73300224 57.3108805,3.09150725 C56.5784466,3.29616244 55.8251247,3.4217135 55.0645057,3.4658953 C53.6729461,3.6014496 53.0765634,4.11139195 52.8976486,5.51857463 C53.4296555,5.24730269 53.9893221,5.03096096 54.5675201,4.87307799 C57.2181098,4.36959061 59.1662932,5.84777792 59.4180993,8.48785919 C59.6699053,11.1279405 57.9205161,13.2580794 55.3958294,13.341994 C52.4337954,13.4323635 50.8500681,12.0510007 50.6579003,9.13335584 C50.5970264,8.19186352 50.5970264,7.24757286 50.6579003,6.30608054 C50.8434416,3.34970591 52.1886159,1.99416296 55.1904087,1.78760403 C56.0253444,1.72305437 56.648233,1.6585047 56.4494388,0.567615373 Z M57.0458215,9.13981081 C57.0458215,7.23559571 56.2837769,6.25444081 55.0048674,6.25444081 C53.7259579,6.25444081 52.9241545,7.30014537 52.9374074,8.83642738 C52.9506604,10.3727094 53.7325844,11.3796842 54.9253497,11.3861391 C55.7581094,11.4641517 56.531733,10.9590502 56.774136,10.1790604 C56.8877596,9.8387558 56.9785134,9.49160477 57.0458215,9.13981081 Z" id="Shape"></path>
                    <path d="M68.2721088,4.76605686 L70.3405368,4.76605686 C70.3790789,5.03613244 70.417621,5.2930336 70.4497395,5.56310918 C71.3464048,4.56743504 72.731242,4.20753153 73.9821231,4.64508269 C75.2330042,5.08263384 76.1146783,6.23535022 76.2310598,7.58538243 C76.3552722,8.70125268 76.3097642,9.83013473 76.0961623,10.9316847 C75.8442842,12.1537809 74.9543609,13.1330447 73.7832952,13.4767438 C72.6122294,13.8204428 71.35182,13.4722855 70.5075527,12.5718998 L70.5075527,16.5769231 L68.2721088,16.5769231 L68.2721088,4.76605686 Z M74.1562082,9.12020219 C74.1356177,8.698858 74.0688186,8.28123199 73.9570738,7.87521964 C73.8056289,7.06031262 73.0805566,6.49273275 72.2740672,6.55777778 C71.8626847,6.51197275 71.4508429,6.63986085 71.1333502,6.91200152 C70.8158576,7.18414219 70.6200706,7.57708658 70.5910607,8.00037661 C70.4509037,8.87014114 70.5125223,9.76153118 70.770924,10.6023243 C71.1002459,11.157241 71.6633175,11.5226873 72.2933383,11.5904057 C72.907177,11.5681344 73.4681945,11.2284106 73.7836342,10.687958 C74.0121207,10.1865988 74.1326208,9.64065504 74.1369371,9.08726614 L74.1562082,9.12020219 Z" id="Shape"></path>
                    <path d="M80.428492,10.647406 C80.8845126,8.88099006 81.3655205,7.33951094 81.6778634,5.73848972 C81.8840096,4.66011591 82.3525239,4.41533168 83.3270335,4.468258 C83.6955981,4.468258 83.8830038,4.50795274 84.3265306,4.50795274 C84.0391752,5.42093179 83.7830541,6.18174766 83.526933,6.98225827 C82.7273353,9.40363749 81.9527251,11.8316325 81.12814,14.2596275 C80.384764,16.4229909 79.7788189,16.7802436 77.5174568,16.4891488 L77.5174568,14.7293486 C77.7254191,14.7451206 77.9341802,14.7451206 78.1421425,14.7293486 C78.5124973,14.7174366 78.8509242,14.5042741 79.0376213,14.16532 C79.2243184,13.8263658 79.2329386,13.4094538 79.0604304,13.0621695 C78.2108579,10.4158534 77.3487917,7.76953731 76.4867254,5.12322123 C76.4367506,4.97105805 76.2993197,4.46153846 76.2993197,4.46153846 C76.2993197,4.46153846 77.1988671,4.46164221 78.379523,4.46164221 C78.5481881,4.46164221 78.7668281,4.86520541 78.8417904,5.12322123 C79.2853172,6.65146876 79.7038566,8.19294788 80.1286429,9.75427437 C80.1848646,9.97259544 80.3098017,10.2107639 80.428492,10.647406 Z" id="Shape"></path>
                    <path d="M5.63228096,12.5384615 L3.27928366,12.5384615 L3.27928366,3.22700193 L0.0408163265,3.22700193 L0.0408163265,1.23076923 L1.00059154,1.23076923 L7.57659978,1.23076923 C8.30726737,1.23076923 8.81501942,2.85351323 8.8707483,3.16260732 L5.63228096,3.16260732 L5.63228096,12.5384615 Z" id="Shape"></path>
                    <path d="M49.8095238,7.69230769 C49.7458999,8.03008682 49.7204504,8.21774189 49.6759137,8.39789075 C49.0396751,10.4545903 49.4150559,10.071774 47.6463124,10.109305 C46.7619407,10.109305 45.877569,10.109305 44.9931973,10.109305 C44.9931973,8.10514884 45.3494909,7.69230769 46.8446517,7.69230769 L49.8095238,7.69230769 Z" id="Shape"></path>
                    <path d="M93.9591837,12.5384615 L92.0511774,12.5384615 L92.0511774,7.25118343 L91.8535845,7.21390533 C91.507797,8.25147929 91.0879121,9.2704142 90.8223967,10.3204142 C90.5939299,11.2213018 89.9702773,10.9976331 89.3774987,11.0535503 C89.1372227,11.1123684 88.8834034,11.0632613 88.6819397,10.9189785 C88.480476,10.7746957 88.3512405,10.5494695 88.3277865,10.3017751 C88.0200499,9.22745008 87.6063409,8.18677226 87.092831,7.19526627 L87.092831,12.5384615 L85.1292517,12.5384615 L85.1292517,4.46153846 L87.8770277,4.46153846 C88.0869702,4.46153846 88.2783883,4.8591716 88.3710099,5.08284024 C88.7970696,6.2260355 89.1613815,7.3816568 89.6059655,8.73609467 C90.0505495,7.39408284 90.45191,6.25088757 90.8100471,5.09526627 C90.87936,4.69798541 91.2457444,4.42490882 91.6436421,4.4739645 L93.9591837,4.4739645 L93.9591837,12.5384615 Z" id="Shape"></path>
                    <path d="M63.5743803,10.647406 C64.0300462,8.88099006 64.5106802,7.33951094 64.8227801,5.73848972 C65.0287661,4.66011591 65.496916,4.41533168 66.4706679,4.468258 C66.8389458,4.468258 67.0262058,4.50795274 67.4693878,4.50795274 C67.1822558,5.42093179 66.9263338,6.18174766 66.6704119,6.98225827 C65.871436,9.40363749 65.0974281,11.8316325 64.2734842,14.2596275 C63.5306863,16.4229909 62.9252124,16.7802436 60.6656087,16.4891488 L60.6656087,14.7293486 C60.8734046,14.7452573 61.0820127,14.7452573 61.2898086,14.7293486 C61.6580401,14.7163289 61.9942525,14.5040938 62.1804479,14.16713 C62.3666433,13.8301661 62.376811,13.4155458 62.2073825,13.0687853 C61.3584706,10.4224692 60.4970747,7.7761531 59.6356788,5.12983702 C59.5857429,4.97767384 59.4421769,4.468258 59.4421769,4.468258 C59.4421769,4.468258 60.3410247,4.468258 61.5207626,4.468258 C61.6892966,4.468258 61.9077665,4.8718212 61.9826705,5.12983702 C62.4258525,6.65808455 62.8440664,8.19956367 63.2685223,9.76089016 C63.3309423,9.97259544 63.4245723,10.2107639 63.5743803,10.647406 Z" id="Shape"></path>
                    <path d="M16.8979592,4.76605686 L18.9663871,4.76605686 C19.0049293,5.03613244 19.0434714,5.2930336 19.0755898,5.56310918 C19.9722551,4.56743504 21.3570923,4.20753153 22.6079734,4.64508269 C23.8588545,5.08263384 24.7405286,6.23535022 24.8569101,7.58538243 C24.9811225,8.70125268 24.9356146,9.83013473 24.7220127,10.9316847 C24.4701345,12.1537809 23.5802113,13.1330447 22.4091455,13.4767438 C21.2380797,13.8204428 19.9776704,13.4722855 19.133403,12.5718998 L19.133403,16.5769231 L16.8979592,16.5769231 L16.8979592,4.76605686 Z M22.7820585,9.12020219 C22.7614681,8.698858 22.694669,8.28123199 22.5829242,7.87521964 C22.4314793,7.06031262 21.7064069,6.49273275 20.8999176,6.55777778 C20.488535,6.51197275 20.0766932,6.63986085 19.7592006,6.91200152 C19.4417079,7.18414219 19.245921,7.57708658 19.216911,8.00037661 C19.076754,8.87014114 19.1383726,9.76153118 19.3967743,10.6023243 C19.7260962,11.157241 20.2891678,11.5226873 20.9191886,11.5904057 C21.5330273,11.5681344 22.0940449,11.2284106 22.4094845,10.687958 C22.6401785,10.1981918 22.7671532,9.66389418 22.7820585,9.12020219 Z" id="Shape"></path>
                    <path d="M29.0573735,10.647406 C29.5130394,8.88099006 29.9936734,7.33951094 30.3057733,5.73848972 C30.5117593,4.66011591 30.9799092,4.41533168 31.9536611,4.468258 C32.321939,4.468258 32.509199,4.50795274 32.952381,4.50795274 C32.665249,5.42093179 32.409327,6.18174766 32.1534051,6.98225827 C31.3544292,9.40363749 30.5804213,11.8316325 29.7564774,14.2596275 C29.0136795,16.4229909 28.4082056,16.7802436 26.1486019,16.4891488 L26.1486019,14.7227328 C26.3563978,14.7386415 26.5650059,14.7386415 26.7728018,14.7227328 C27.1410333,14.7097131 27.4772457,14.497478 27.6634411,14.1605142 C27.8496365,13.8235503 27.8598042,13.40893 27.6903757,13.0621695 C26.8414638,10.4158534 25.9800679,7.76953731 25.118672,5.12322123 C25.068736,4.97105805 24.9251701,4.46153846 24.9251701,4.46153846 C24.9251701,4.46153846 25.8240179,4.46164221 27.0037558,4.46164221 C27.1722898,4.46164221 27.3907597,4.86520541 27.4656637,5.12322123 C27.9088457,6.65146876 28.3270596,8.19294788 28.7515155,9.75427437 C28.8139355,9.97259544 28.9075655,10.2107639 29.0573735,10.647406 Z" id="Shape"></path>
                    <path d="M42.585034,12.5260355 L40.6743555,12.5260355 L40.6743555,7.25118343 L40.4764858,7.21390533 C40.130214,8.25147929 39.709741,9.2704142 39.4438537,10.3204142 C39.215067,11.2213018 38.590541,10.9976331 37.9969321,11.0535503 C37.7563196,11.1123684 37.5021448,11.0632613 37.3003989,10.9189785 C37.0986531,10.7746957 36.9692366,10.5494695 36.9457497,10.3017751 C36.6375822,9.22745008 36.2232937,8.18677226 35.7090646,7.19526627 L35.7090646,12.5384615 L33.755102,12.5384615 L33.755102,4.46153846 L36.5067265,4.46153846 C36.716963,4.46153846 36.9086492,4.8591716 37.0014006,5.08284024 C37.4280569,6.2260355 37.7928791,7.3816568 38.2380857,8.73609467 C38.6832924,7.39408284 39.085215,6.25088757 39.4438537,5.09526627 C39.5132637,4.69798541 39.8801613,4.42490882 40.2786162,4.4739645 L42.5726672,4.4739645 L42.585034,12.5260355 Z" id="Shape"></path>
                    <path d="M12.1971995,10.647406 C12.65322,8.88099006 13.134228,7.33951094 13.4465708,5.73848972 C13.6527171,4.66011591 14.1212314,4.41533168 15.095741,4.468258 C15.4643056,4.468258 15.6517113,4.50795274 16.0952381,4.50795274 C15.8078827,5.42093179 15.5517616,6.18174766 15.2956404,6.98225827 C14.4960428,9.40363749 13.7214325,11.8316325 12.8968475,14.2596275 C12.1534715,16.4229909 11.5475264,16.7802436 9.28616427,16.4891488 L9.28616427,14.7227328 C9.49412655,14.7385048 9.70288766,14.7385048 9.91084994,14.7227328 C10.279368,14.7097131 10.6158421,14.497478 10.8021823,14.1605142 C10.9885226,13.8235503 10.9986982,13.40893 10.8291379,13.0621695 C9.97956537,10.4158534 9.11749914,7.76953731 8.25543291,5.12322123 C8.20545806,4.97105805 8.06802721,4.46153846 8.06802721,4.46153846 C8.06802721,4.46153846 8.96757458,4.46164221 10.1482305,4.46164221 C10.3168956,4.46164221 10.5355356,4.86520541 10.6104979,5.12322123 C11.0540247,6.65146876 11.4725641,8.19294788 11.8973504,9.75427437 C11.9535721,9.97259544 12.0535218,10.2107639 12.1971995,10.647406 Z" id="Shape"></path>
                </g>
            </g>
        </g>
    </g>
</svg>