<svg xmlns="http://www.w3.org/2000/svg" width="229" height="66" viewBox="0 0 229 66">
    <g fill="none" fill-rule="evenodd">
        <path fill="#0080CC" fill-rule="nonzero" d="M9.314 36.07c-1.103-1.548-2.032-3.273-2.824-5.092-.706-1.65-1.27-3.366-1.578-5.192a18.304 18.304 0 0 1-.066-5.459c.234-1.686.73-3.292 1.539-4.694.857-1.471 2.025-2.628 3.323-3.497 2.426-1.64 5.221-2.184 5.221-2.184s-2.62.144-5.201.749c-1.273.298-2.529.749-3.694 1.448a9.95 9.95 0 0 0-2.2 1.79c-.642.695-1.15 1.546-1.567 2.459C-.047 21.415.93 27.66 3.366 32.655c.51 1.043 1.086 2.03 1.792 2.876.637.75 1.352 1.423 2.09 2.023.616.505 1.252.976 1.923 1.364 2.026 1.178 4.234 1.73 4.234 1.73s-2.255-2.018-4.091-4.577zm61.139-4.216l-4.537-1.015.76-8.187-4.581 2.104.129-6.176-5.251 2.096-1.95-6.117-3.576 3.409-2.581-3.671-2.727 2.394-3.265-4.518-2.06 4.509-4.43-3.98-1.32 5.373-5.694-2.837.087 5.795-4.966-.596.58 4.698-4.555-.115 1.287 5.55-4.754 1.201 2.02 4.498-5.302 1.4 2.869 3.815-5.067 2.02 4.579 4.44-4.048 5.133 4.964 2.617-1.785 5.06 4.42 1.792v3.144h35.66v-2.006l28.056-.046c-10.526-8.246-20.423-14.52-12.962-31.784zM52.864 61.205v2H47.77v-2.231h-2.845v2.23H39.7v-2.757h-4.615v2.758H30.11v-2.231h-3.168v2.23H22.19V60.88l-3.774-1.532 1.705-4.842-4.225-2.235 3.59-4.543-3.437-3.337 4.524-1.803-2.597-3.463 4.556-1.2-1.998-4.472 4.242-1.075-1.11-4.796 4.225.108-.537-4.414 4.635.56-.063-4.547 4.818 2.394 1.07-4.354 3.859 3.47 1.691-3.705 2.36 3.275 2.703-2.37 2.65 3.761 2.782-2.65 1.55 4.864 4.244-1.698-.133 6.403 4.275-1.968-.567 6.076 3.846.853c-2.066 5.843-2.638 11.916.382 17.7 1.996 3.827 5.297 6.984 8.775 9.83l-23.367.035zM29.034.617c-.936 1.622-1.954 3.361-2.89 4.989.49.022.984.047 1.476.068 1.557-1.787 1.963-3.701 1.745-5.683-5.26.27-8.13 2.916-9.27 7.285.653.806 1.3 1.606 1.953 2.403.441-4.835 2.966-7.79 6.986-9.062zm-4.02 11.044c1.664-.594 3.554-1.37 5.734-1.711-1.714-.257-3.45-.687-5.305.117-1.797.787-3.554 1.277-5.395 1.42 1.252.63 3.144.82 4.966.174zm32.535 35.964c-1.065 0-1.928.86-1.928 1.923 0 1.06.863 1.92 1.928 1.92 1.068 0 1.931-.86 1.931-1.92a1.925 1.925 0 0 0-1.931-1.923zm4.175 1.158c-.726 0-1.312.584-1.312 1.303 0 .72.587 1.303 1.312 1.303.722 0 1.307-.583 1.307-1.303s-.585-1.303-1.307-1.303z"/>
        <path fill="#595959" fill-rule="nonzero" d="M199.608 31.417c-.58-.635-1.323-1.129-2.227-1.477-.899-.338-1.975-.512-3.217-.512-1.086 0-2.082.199-3.002.598a6.9 6.9 0 0 0-2.393 1.73c-.674.758-1.204 1.687-1.582 2.79-.382 1.113-.566 2.38-.566 3.802 0 1.526.165 2.847.527 3.949.358 1.09.87 1.999 1.54 2.71.665.714 1.48 1.238 2.456 1.583.962.345 2.061.513 3.282.513.873 0 1.757-.077 2.669-.243a7.395 7.395 0 0 0 2.533-.943c.286-.138.346-.35.194-.65l-.692-1.353c-.152-.265-.354-.314-.609-.165-.466.235-1.042.446-1.735.629a8.451 8.451 0 0 1-2.13.272c-.717 0-1.391-.09-2.012-.288a4.128 4.128 0 0 1-1.633-.954c-.467-.44-.842-1.018-1.13-1.725-.276-.716-.423-1.578-.423-2.59h9.406c.33 0 .64-.039.933-.11a2.1 2.1 0 0 0 .793-.394 1.78 1.78 0 0 0 .535-.756c.132-.325.196-.746.196-1.26 0-1.064-.133-2.027-.417-2.896a6.32 6.32 0 0 0-1.296-2.26zm-10.05 5.41a6.842 6.842 0 0 1 .388-1.9 5.45 5.45 0 0 1 .903-1.604c.379-.468.853-.837 1.414-1.115.553-.285 1.195-.416 1.92-.416.876 0 1.591.125 2.173.404.583.265 1.045.628 1.385 1.096a4.08 4.08 0 0 1 .7 1.615c.139.613.199 1.254.199 1.92h-9.083zm38.538 9.38l-1.632-5.595a14.08 14.08 0 0 0-.358-.986 3.762 3.762 0 0 0-.497-.854 2.864 2.864 0 0 0-.736-.678 3.856 3.856 0 0 0-1.06-.486l.033-.072a3.093 3.093 0 0 0 1.355-1.174c.337-.53.597-1.137.77-1.826l1.205-4.237a.632.632 0 0 0-.011-.335c-.036-.124-.145-.18-.346-.18h-1.767a.695.695 0 0 0-.304.065c-.098.038-.176.15-.217.324l-1.24 4.042c-.151.499-.343.888-.573 1.194a2.851 2.851 0 0 1-.751.708c-.274.176-.57.285-.886.344a5.92 5.92 0 0 1-.96.082h-2.191v-6.27c0-.224-.041-.353-.13-.408-.087-.054-.221-.08-.394-.08h-1.797c-.196 0-.33.026-.406.08-.075.055-.12.184-.12.407v6.271h-2.185c-.33 0-.647-.03-.967-.082a2.407 2.407 0 0 1-.88-.344 2.582 2.582 0 0 1-.732-.708c-.224-.307-.406-.696-.556-1.194l-1.282-4.042c-.032-.173-.11-.286-.21-.324a.72.72 0 0 0-.306-.064h-1.77c-.197 0-.316.055-.353.179a.574.574 0 0 0-.036.335l1.242 4.237c.175.69.423 1.297.749 1.826.33.52.788.921 1.376 1.174l.03.072c-.85.259-1.447.65-1.797 1.177-.35.524-.63 1.137-.854 1.825l-1.664 5.594a.783.783 0 0 0 .018.354c.032.128.167.194.409.194h1.902c.082 0 .178-.018.29-.052.11-.027.181-.128.227-.299l1.604-5.338c.24-.82.66-1.4 1.27-1.749a3.922 3.922 0 0 1 1.929-.514h2.548v7.462c0 .22.044.362.12.412.076.047.209.079.405.079h1.797a.84.84 0 0 0 .393-.08c.09-.049.131-.19.131-.41V38.8h2.551c.674 0 1.32.174 1.928.514.61.349 1.036.93 1.274 1.749l1.603 5.338c.041.17.12.272.23.3a.973.973 0 0 0 .293.05h1.927c.245 0 .366-.065.376-.193.005-.128.005-.25-.017-.352z"/>
        <path fill="#858585" fill-rule="nonzero" d="M117.366 31.417c-.581-.635-1.318-1.129-2.222-1.477-.903-.338-1.977-.512-3.22-.512-1.09 0-2.087.199-3.004.598a6.99 6.99 0 0 0-2.392 1.73c-.671.758-1.208 1.687-1.581 2.79-.391 1.113-.572 2.38-.572 3.802 0 1.526.175 2.847.536 3.949.36 1.09.879 1.999 1.554 2.71.67.714 1.5 1.238 2.463 1.583.972.345 2.069.513 3.282.513.877 0 1.769-.077 2.675-.243a7.309 7.309 0 0 0 2.529-.943c.284-.138.35-.35.193-.65l-.688-1.353c-.15-.265-.346-.314-.618-.165-.46.235-1.04.446-1.737.629a8.408 8.408 0 0 1-2.127.272c-.72 0-1.399-.09-2.022-.288a4.16 4.16 0 0 1-1.644-.954c-.47-.44-.846-1.018-1.13-1.725-.285-.716-.428-1.578-.428-2.59h9.42c.323 0 .636-.039.927-.11a2.05 2.05 0 0 0 .787-.394c.227-.184.407-.434.542-.756.125-.325.192-.746.192-1.26 0-1.064-.135-2.027-.422-2.896a6.083 6.083 0 0 0-1.293-2.26zm-10.05 5.41a6.81 6.81 0 0 1 .395-1.9c.216-.607.517-1.14.9-1.604a4.261 4.261 0 0 1 1.41-1.115c.555-.285 1.203-.416 1.92-.416.876 0 1.605.125 2.185.404.577.265 1.04.628 1.373 1.096.341.466.58 1 .709 1.615.125.613.2 1.254.2 1.92h-9.092zm-5.652-7.041H88.519c-.236 0-.4.052-.475.161a.813.813 0 0 0-.115.458v1.28c0 .174.04.31.115.413.074.093.239.146.475.146h5.063v13.929c0 .239.05.39.139.463.08.081.24.117.454.117h1.6c.221 0 .37-.036.459-.117.088-.074.132-.225.132-.463V32.244h5.299c.26 0 .426-.053.487-.146a.78.78 0 0 0 .097-.413v-1.28a.946.946 0 0 0-.097-.458c-.062-.11-.227-.161-.488-.161zm29.418 7.852l5.072-7.434a.412.412 0 0 0 .047-.263c-.013-.102-.115-.154-.314-.154h-2.126a.692.692 0 0 0-.405.107c-.102.085-.2.175-.283.281l-3.526 5.557-3.501-5.559a1.146 1.146 0 0 0-.242-.28c-.098-.067-.264-.108-.477-.108h-2.191c-.174 0-.272.055-.289.179a.392.392 0 0 0 .057.307l4.94 7.496-5.683 8.494c-.178.329-.104.49.227.49h2.092c.215 0 .377-.035.471-.116.105-.074.193-.178.278-.301l4.19-6.498 4.084 6.534c.062.104.146.191.23.265.08.08.249.117.49.117h2.388c.174 0 .257-.052.257-.162a.57.57 0 0 0-.066-.29l-5.72-8.662zm23.078-7.852h-1.628c-.218 0-.372.035-.474.094-.103.06-.152.216-.152.451v6.107h-8.467v-6.107c0-.236-.048-.391-.143-.451-.102-.06-.257-.094-.467-.094h-1.585c-.218 0-.378.035-.487.094-.109.06-.163.216-.163.451v15.842c0 .239.055.39.163.463.11.081.27.117.487.117h1.585c.21 0 .366-.036.467-.117.095-.074.143-.225.143-.463V38.83h8.467v7.342c0 .239.049.39.152.463.103.081.256.117.474.117h1.628c.236 0 .396-.036.477-.117.075-.074.114-.225.114-.463V30.33c0-.236-.04-.391-.114-.451-.08-.06-.24-.094-.477-.094zm13.158-.358a7.879 7.879 0 0 0-3.03.584 6.765 6.765 0 0 0-2.432 1.707c-.687.753-1.221 1.683-1.596 2.785-.378 1.102-.573 2.356-.573 3.784 0 2.91.641 5.101 1.922 6.596 1.289 1.489 3.157 2.222 5.618 2.222 2.494 0 4.403-.76 5.72-2.285 1.318-1.529 1.972-3.74 1.972-6.63 0-2.737-.647-4.886-1.936-6.432-1.3-1.555-3.18-2.331-5.665-2.331zm4.53 11.244c-.154.777-.415 1.475-.789 2.078a4.31 4.31 0 0 1-1.48 1.453c-.626.36-1.39.541-2.31.541-.912 0-1.677-.158-2.272-.48a3.94 3.94 0 0 1-1.453-1.338c-.372-.576-.628-1.258-.78-2.078a14.51 14.51 0 0 1-.233-2.658c0-.864.094-1.678.29-2.46.197-.769.489-1.453.885-2.036a4.444 4.444 0 0 1 1.504-1.387c.607-.343 1.326-.512 2.158-.512.959 0 1.742.179 2.35.542.613.37 1.092.847 1.443 1.44.346.591.586 1.28.717 2.066.13.786.2 1.609.2 2.445.001.818-.079 1.615-.23 2.384z"/>
        <path d="M88.52 18.472h139.576V54.57H88.52z"/>
        <path fill="#0080CC" fill-rule="nonzero" d="M191.112 27.08c1.573 0 2.858-1.27 2.858-2.831 0-1.562-1.285-2.828-2.858-2.828-1.581 0-2.864 1.266-2.864 2.828 0 1.562 1.283 2.83 2.864 2.83zM197.296 26.958c1.07 0 1.934-.855 1.934-1.917 0-1.051-.865-1.919-1.934-1.919-1.074 0-1.945.868-1.945 1.92 0 1.061.87 1.916 1.945 1.916z"/>
    </g>
</svg>
